<svg xmlns="http://www.w3.org/2000/svg" xmlns:xlink="http://www.w3.org/1999/xlink" version="1.1" x="0px" y="0px" viewBox="0 0 100 100" enable-background="new 0 0 100.063 100.063" xml:space="preserve"><g><circle fill="#000000" cx="24.478" cy="49.996" r="4.447"/><circle fill="#000000" cx="49.991" cy="25.489" r="4.447"/><path fill="#000000" d="M80.893,35.998H63.557V19.679c0-4.553-3.704-8.258-8.258-8.258H19.17c-4.554,0-8.258,3.705-8.258,8.258   v36.128c0,4.553,3.704,8.258,8.258,8.258h17.337v16.319c0,4.553,3.704,8.258,8.257,8.258h36.129c4.554,0,8.258-3.705,8.258-8.258   V44.256C89.15,39.703,85.446,35.998,80.893,35.998z M19.17,59.621c-2.104,0-3.814-1.711-3.814-3.814V19.679   c0-2.104,1.711-3.814,3.814-3.814h36.129c2.104,0,3.814,1.711,3.814,3.814v16.319h-14.35c-4.553,0-8.257,3.705-8.257,8.258v15.365   H19.17z M84.707,80.384c0,2.104-1.711,3.814-3.814,3.814H44.764c-2.103,0-3.813-1.711-3.813-3.814V44.256   c0-2.104,1.711-3.814,3.813-3.814h36.129c2.104,0,3.814,1.711,3.814,3.814V80.384z"/><circle fill="#000000" cx="50.074" cy="50.066" r="4.447"/><circle fill="#000000" cx="75.585" cy="74.573" r="4.447"/><circle fill="#000000" cx="50.074" cy="74.573" r="4.447"/><circle fill="#000000" cx="75.585" cy="50.066" r="4.447"/><circle fill="#000000" cx="62.83" cy="62.32" r="4.447"/></g></svg>
